<svg class="icon" style="width: 1.7314453125em; height: 1em;vertical-align: middle;fill: currentColor;overflow: hidden;" viewBox="0 0 1773 1024" version="1.1" xmlns="http://www.w3.org/2000/svg" p-id="617"><path d="M1624.660389 114.19039l-18.567543-18.567543h-371.350861l-167.107887-74.270172v742.701722h144.455485a204.242974 204.242974 0 0 1 371.350861 148.540345h171.192747v-427.053491z m37.135087 371.350861H1396.093934a12.811605 12.811605 0 0 1-12.811604-12.811605V256.974796a12.811605 12.811605 0 0 1 12.811604-12.811605H1596.809075a12.99728 12.99728 0 0 1 12.254578 9.098096l65.729103 214.455123a13.739982 13.739982 0 0 1-13.182956 17.824841z" fill="#09AAFF" p-id="618"></path><path d="M1383.28233 791.905712a83.553944 83.553944 0 1 0 83.553943 83.553943 83.739619 83.739619 0 0 0-83.553943-83.553943z m0 148.540344a64.986401 64.986401 0 1 1 64.9864-64.986401 64.986401 64.986401 0 0 1-64.9864 64.986401zM306.364832 791.905712a83.553944 83.553944 0 1 0 83.553944 83.553943 83.739619 83.739619 0 0 0-83.553944-83.553943z m0 148.540344a64.986401 64.986401 0 1 1 64.986401-64.986401 64.986401 64.986401 0 0 1-64.986401 64.986401zM1617.790399 250.290481a21.909701 21.909701 0 0 0-20.981324-15.411061H1396.093934A21.909701 21.909701 0 0 0 1373.998558 256.789121v215.940525a22.095376 22.095376 0 0 0 22.095376 22.095377h265.515866a22.838078 22.838078 0 0 0 18.567543-9.469447 22.466727 22.466727 0 0 0 3.527833-20.424298z m47.53291 224.110244a4.45621 4.45621 0 0 1-3.713509 1.856755h-265.515866a3.527833 3.527833 0 0 1-3.527833-3.527834V256.789121a3.342158 3.342158 0 0 1 3.527833-3.342158H1596.809075a3.156482 3.156482 0 0 1 3.342158 2.41378l66.100453 214.455123a4.641886 4.641886 0 0 1-0.928377 4.084859z" p-id="619"></path><path d="M1762.060208 448.777516L1655.668186 129.972801a77.240979 77.240979 0 0 0-74.270172-52.731822H1259.622493a76.683953 76.683953 0 0 1-37.135086-9.840798L1111.639175 5.941614a43.262375 43.262375 0 0 0-37.135087-2.970807 40.848595 40.848595 0 0 0-25.251858 37.135086v714.664733H493.525666a222.810517 222.810517 0 0 0-374.321668 0H43.448422A43.448051 43.448051 0 0 0 0.000371 798.404352v117.346872a43.448051 43.448051 0 0 0 43.448051 43.448051h57.188033a20.052947 20.052947 0 0 0 20.052946-20.238622v-7.798368h48.089937a148.540345 148.540345 0 0 0 275.170988 0h48.089937v7.798368a20.052947 20.052947 0 0 0 20.052946 20.052946h665.460743a20.052947 20.052947 0 0 0 20.052947-20.052946v-7.798368h48.089937a148.540345 148.540345 0 0 0 275.170988 0h208.142158a44.190752 44.190752 0 0 0 44.190752-44.190753V517.848776a218.725657 218.725657 0 0 0-11.140526-69.07126z m-1678.505893 427.05349v46.418858H43.448422a6.312965 6.312965 0 0 1-6.312965-6.684315V798.404352a6.312965 6.312965 0 0 1 6.312965-6.312965h55.702629a222.810517 222.810517 0 0 0-15.596736 83.368268z m331.430644 25.437534a111.405258 111.405258 0 1 1-134.057661-134.057661 111.405258 111.405258 0 0 1 134.057661 133.68631z m77.055304-6.869991h-38.434815a153.367906 153.367906 0 0 0 1.299728-18.567543 148.540345 148.540345 0 0 0-297.080689 0 153.367906 153.367906 0 0 0 1.299728 18.567543H120.689401v-12.440253a190.131641 190.131641 0 0 1 172.863826-191.80272 185.675431 185.675431 0 0 1 198.487036 185.67543z m668.43155-18.567543v46.418858h-631.296464v-46.418858a222.810517 222.810517 0 0 0-16.339438-83.553943h663.97534a222.810517 222.810517 0 0 0-16.339438 83.182592z m331.430644 25.437534a111.405258 111.405258 0 1 1-134.057661-134.057661 111.405258 111.405258 0 0 1 134.057661 133.68631z m77.055303-6.869991h-38.434814a153.367906 153.367906 0 0 0 1.299728-18.567543 148.540345 148.540345 0 0 0-297.080689 0 153.367906 153.367906 0 0 0 1.299728 18.567543H1197.606899v-12.440253a190.131641 190.131641 0 0 1 172.863826-191.80272 185.675431 185.675431 0 0 1 198.487035 185.67543z m167.107888-7.055666a7.055666 7.055666 0 0 1-7.055666 7.055666H1606.092846v-11.326201a227.452403 227.452403 0 0 0-217.240253-230.423209 222.810517 222.810517 0 0 0-192.731097 102.121487H1086.201641V40.848595a3.899184 3.899184 0 0 1 1.856754-3.713509 3.713509 3.713509 0 0 1 3.899184 0l111.405258 62.201269a114.747416 114.747416 0 0 0 55.70263 14.482684h323.260924a39.920218 39.920218 0 0 1 37.135086 27.294288L1726.781876 460.660743a180.847869 180.847869 0 0 1 9.283772 57.188033z" p-id="620"></path></svg>